<svg width="230" height="36" viewBox="0 0 230 36" fill="none" xmlns="http://www.w3.org/2000/svg">
<g clip-path="url(#clip0_416_70)">
<path d="M50.6101 31.6064V13.1532H54.8729L55.2874 15.6457C55.8924 14.7504 56.6878 14.0375 57.6849 13.5069C58.6764 12.9708 59.8303 12.7056 61.1354 12.7056C64.0258 12.7056 66.076 13.8109 67.2803 16.016C67.9581 14.9991 68.8712 14.1922 70.0139 13.5953C71.1566 12.9985 72.4058 12.7 73.7669 12.7C76.2036 12.7 78.0801 13.4185 79.3853 14.8609C80.6905 16.2978 81.3459 18.409 81.3459 21.1888V31.6064H76.5173V21.6365C76.5173 20.0504 76.2092 18.8345 75.5931 17.9889C74.9769 17.1434 74.0302 16.7234 72.7475 16.7234C71.4647 16.7234 70.3892 17.1931 69.5994 18.1382C68.8096 19.0832 68.4119 20.3985 68.4119 22.0841V31.6119H63.5833V21.642C63.5833 20.0559 63.2696 18.84 62.6423 17.9945C62.0149 17.1489 61.0458 16.7289 59.7406 16.7289C58.4355 16.7289 57.4216 17.1987 56.6318 18.1437C55.842 19.0887 55.4443 20.4041 55.4443 22.0897V31.6174H50.6157L50.6101 31.6064Z" fill="#F4F4F5"/>
<path d="M95.0305 32.054C93.1428 32.054 91.4735 31.6561 90.0171 30.8603C88.5607 30.0645 87.4124 28.9536 86.5834 27.5112C85.7544 26.0743 85.3398 24.4108 85.3398 22.5263C85.3398 20.6417 85.7488 18.9174 86.5666 17.4308C87.3844 15.9441 88.5159 14.7835 89.9611 13.9546C91.4063 13.1256 93.1092 12.7056 95.0697 12.7056C96.9071 12.7056 98.5259 13.1035 99.9375 13.8993C101.343 14.6951 102.447 15.7783 103.237 17.1544C104.027 18.5306 104.424 20.0614 104.424 21.747C104.424 22.0178 104.419 22.3052 104.408 22.6036C104.396 22.9021 104.374 23.2115 104.352 23.5321H90.1348C90.2356 24.969 90.7453 26.1019 91.664 26.9199C92.5827 27.7378 93.6918 28.1468 95.0025 28.1468C95.9828 28.1468 96.8062 27.9312 97.4728 27.4946C98.1394 27.0636 98.6379 26.4943 98.9628 25.8035H103.864C103.511 26.9696 102.929 28.0307 102.111 28.9868C101.293 29.9429 100.29 30.6945 99.0917 31.2361C97.8985 31.7832 96.5486 32.054 95.0361 32.054H95.0305ZM95.0697 16.5741C93.8878 16.5741 92.8459 16.9057 91.9385 17.5634C91.031 18.2211 90.4541 19.2214 90.202 20.5588H99.5174C99.4446 19.343 98.9908 18.3758 98.1618 17.6574C97.3328 16.9389 96.3021 16.5797 95.0697 16.5797V16.5741Z" fill="#F4F4F5"/>
<path d="M108.497 31.6064V13.1532H112.799L113.252 16.6128C113.93 15.4246 114.854 14.4741 116.025 13.7667C117.196 13.0593 118.568 12.7056 120.153 12.7056V17.7292H118.798C117.739 17.7292 116.798 17.8895 115.969 18.2155C115.14 18.5361 114.49 19.0943 114.025 19.8901C113.56 20.6859 113.325 21.7857 113.325 23.2005V31.6119H108.497V31.6064Z" fill="#F4F4F5"/>
<path d="M126.03 10.2849C125.15 10.2849 124.427 10.0252 123.862 9.50568C123.296 8.98619 123.016 8.32852 123.016 7.5327C123.016 6.73688 123.296 6.09027 123.862 5.58183C124.427 5.07338 125.15 4.81916 126.03 4.81916C126.909 4.81916 127.632 5.07338 128.197 5.58183C128.763 6.09027 129.043 6.7424 129.043 7.5327C129.043 8.323 128.757 8.98619 128.197 9.50568C127.632 10.0252 126.909 10.2849 126.03 10.2849ZM123.615 31.6064V13.1532H128.444V31.6064H123.615Z" fill="#F4F4F5"/>
<path d="M142.095 32.054C140.336 32.054 138.762 31.634 137.378 30.7885C135.995 29.9429 134.902 28.7934 134.096 27.3288C133.289 25.8643 132.886 24.2008 132.886 22.3439C132.886 20.487 133.289 18.829 134.096 17.3755C134.902 15.922 135.995 14.7835 137.378 13.9546C138.762 13.1256 140.33 12.7056 142.095 12.7056C143.501 12.7056 144.733 12.9653 145.792 13.4903C146.85 14.0098 147.702 14.7449 148.357 15.6844V4.81916H153.186V31.6064H148.884L148.357 28.9647C147.752 29.7826 146.957 30.5011 145.96 31.1256C144.968 31.7446 143.68 32.054 142.095 32.054ZM143.114 27.887C144.671 27.887 145.949 27.373 146.94 26.3451C147.932 25.3172 148.43 23.9963 148.43 22.3826C148.43 20.7688 147.932 19.448 146.94 18.42C145.949 17.3921 144.671 16.8781 143.114 16.8781C141.557 16.8781 140.308 17.3866 139.305 18.4034C138.297 19.4203 137.798 20.7356 137.798 22.3494C137.798 23.9632 138.302 25.2895 139.305 26.3285C140.308 27.3675 141.579 27.8925 143.114 27.8925V27.887Z" fill="#F4F4F5"/>
<path d="M160.686 10.2849C159.807 10.2849 159.084 10.0252 158.518 9.50568C157.953 8.98619 157.673 8.32852 157.673 7.5327C157.673 6.73688 157.953 6.09027 158.518 5.58183C159.084 5.07338 159.807 4.81916 160.686 4.81916C161.566 4.81916 162.288 5.07338 162.854 5.58183C163.42 6.09027 163.7 6.7424 163.7 7.5327C163.7 8.323 163.414 8.98619 162.854 9.50568C162.288 10.0252 161.566 10.2849 160.686 10.2849ZM158.272 31.6064V13.1532H163.101V31.6064H158.272Z" fill="#F4F4F5"/>
<path d="M174.601 32.054C172.993 32.054 171.671 31.7998 170.64 31.2914C169.61 30.7829 168.842 30.1087 168.338 29.2631C167.834 28.4231 167.582 27.4891 167.582 26.4722C167.582 24.759 168.26 23.3718 169.615 22.3052C170.971 21.2386 173.01 20.708 175.726 20.708H180.477V20.2604C180.477 18.9948 180.112 18.0663 179.384 17.4695C178.656 16.8726 177.749 16.5741 176.668 16.5741C175.687 16.5741 174.83 16.8063 174.102 17.265C173.374 17.7237 172.92 18.3979 172.746 19.2932H168.03C168.153 17.9558 168.612 16.7897 169.408 15.7949C170.198 14.8057 171.223 14.0375 172.483 13.5069C173.738 12.9708 175.149 12.7056 176.707 12.7056C179.373 12.7056 181.474 13.3632 183.003 14.6785C184.538 15.9939 185.305 17.8508 185.305 20.2604V31.6064H181.194L180.74 28.6276C180.185 29.6224 179.412 30.4403 178.421 31.0814C177.429 31.728 176.152 32.0485 174.595 32.0485L174.601 32.054ZM175.693 28.3347C177.076 28.3347 178.152 27.887 178.919 26.9972C179.687 26.1019 180.168 25.0021 180.37 23.6868H176.259C174.976 23.6868 174.057 23.9189 173.508 24.3776C172.959 24.8364 172.679 25.4001 172.679 26.0688C172.679 26.7872 172.954 27.3454 173.508 27.7433C174.063 28.1412 174.791 28.3402 175.698 28.3402L175.693 28.3347Z" fill="#F4F4F5"/>
<path d="M189.915 31.6064V13.1532H194.178L194.553 16.2812C195.13 15.1925 195.965 14.3193 197.063 13.6782C198.155 13.0316 199.444 12.7111 200.928 12.7111C203.241 12.7111 205.039 13.4295 206.322 14.872C207.605 16.3089 208.244 18.42 208.244 21.1999V31.6174H203.415V21.6475C203.415 20.0614 203.09 18.8456 202.435 18C201.779 17.1544 200.76 16.7344 199.382 16.7344C198.004 16.7344 196.912 17.2042 196.043 18.1492C195.175 19.0943 194.744 20.4096 194.744 22.0952V31.623H189.915V31.6064Z" fill="#F4F4F5"/>
<path d="M219.29 32.054C217.682 32.054 216.36 31.7998 215.329 31.2914C214.299 30.7829 213.531 30.1087 213.027 29.2631C212.523 28.4231 212.271 27.4891 212.271 26.4722C212.271 24.759 212.949 23.3718 214.304 22.3052C215.66 21.2386 217.699 20.708 220.416 20.708H225.166V20.2604C225.166 18.9948 224.802 18.0663 224.073 17.4695C223.345 16.8726 222.438 16.5741 221.357 16.5741C220.376 16.5741 219.519 16.8063 218.791 17.265C218.063 17.7237 217.609 18.3979 217.436 19.2932H212.719C212.842 17.9558 213.302 16.7897 214.097 15.7949C214.887 14.8057 215.912 14.0375 217.172 13.5069C218.427 12.9708 219.839 12.7056 221.396 12.7056C224.062 12.7056 226.163 13.3632 227.692 14.6785C229.227 15.9939 229.994 17.8508 229.994 20.2604V31.6064H225.883L225.429 28.6276C224.874 29.6224 224.101 30.4403 223.11 31.0814C222.119 31.728 220.841 32.0485 219.284 32.0485L219.29 32.054ZM220.382 28.3347C221.766 28.3347 222.841 27.887 223.609 26.9972C224.376 26.1019 224.858 25.0021 225.059 23.6868H220.948C219.665 23.6868 218.746 23.9189 218.197 24.3776C217.648 24.8364 217.368 25.4001 217.368 26.0688C217.368 26.7872 217.643 27.3454 218.197 27.7433C218.752 28.1412 219.48 28.3402 220.388 28.3402L220.382 28.3347Z" fill="#F4F4F5"/>
<path d="M34.4161 2.288C32.3379 0.33712 30.4502 0 27.8735 0H23.9412V3.40436C23.9412 5.02364 25.2687 6.33344 26.91 6.33344C26.91 6.33344 28.0359 6.35002 28.2208 6.37765C28.2824 6.3887 28.9097 6.33896 29.6099 7.07399C30.3101 7.80903 30.2373 8.22352 30.2373 9.0525C30.2373 9.06908 30.2541 9.59411 30.2541 9.59411C30.2541 11.2134 31.5817 12.5232 33.2229 12.5232H36.6735V8.64354C36.6735 6.10132 36.3262 4.29966 34.4049 2.28247L34.4161 2.288Z" fill="#FF8D12"/>
<path d="M26.9267 20.0835V26.9917C26.9267 28.5999 25.6047 29.9042 23.9747 29.9042H9.84194C8.21188 29.9042 6.88992 28.5999 6.88992 26.9917L6.90112 22.6534H6.91793L6.91232 20.089V17.5247H6.90672L6.89552 13.1864C6.89552 11.5781 8.21749 10.2739 9.84754 10.2739H16.9895C18.7988 10.2739 20.244 8.7817 20.1656 7.00215C20.1208 6.06263 20.0816 5.12312 20.0424 4.18361H5.14783C2.30224 4.18361 0 6.46055 0 9.26251V30.9211C0 33.7231 2.30224 36 5.14783 36H28.2038C31.0382 36 33.3573 33.712 33.3573 30.9156V16.7068C32.237 16.7731 31.1167 16.8394 29.9963 16.8947C28.2711 16.9831 26.9211 18.3813 26.9211 20.0835H26.9267Z" fill="#F4F4F5"/>
</g>
<defs>
<clipPath id="clip0_416_70">
<rect width="230" height="36" fill="white"/>
</clipPath>
</defs>
</svg>
